<svg xmlns="http://www.w3.org/2000/svg" viewBox="0 0 480 480" fill="none" shape-rendering="auto" width="512" height="512"><metadata xmlns:rdf="http://www.w3.org/1999/02/22-rdf-syntax-ns#" xmlns:xsi="http://www.w3.org/2001/XMLSchema-instance" xmlns:dc="http://purl.org/dc/elements/1.1/" xmlns:dcterms="http://purl.org/dc/terms/"><rdf:RDF><rdf:Description><dc:title>Custom Avatar</dc:title><dc:creator>Ashley Seo</dc:creator><dc:source xsi:type="dcterms:URI">https://www.figma.com/community/file/881358461963645496</dc:source><dcterms:license xsi:type="dcterms:URI">https://creativecommons.org/licenses/by/4.0/</dcterms:license><dc:rights>Remix of „Custom Avatar” (https://www.figma.com/community/file/881358461963645496) by „Ashley Seo”, licensed under „CC BY 4.0” (https://creativecommons.org/licenses/by/4.0/)</dc:rights></rdf:Description></rdf:RDF></metadata><mask id="viewboxMask"><rect width="480" height="480" rx="0" ry="0" x="0" y="0" fill="#fff" /></mask><g mask="url(#viewboxMask)"><g transform="matrix(.85775 0 0 .85427 52 47)"><path d="M264 38.6s131.4 20.6 121.4 208.1c0 .7 15.2 10.9 16.4 12a77.1 77.1 0 0 1 23.4 36.3c13.9 51.3-35.7 104.2-75.8 118.2a155 155 0 0 1-46.7 8.3c-103.1 3-239.7-62.7-246.7-191a202.7 202.7 0 0 1 15.1-83.9c0 .1 57.4-142.5 192.9-108Z" fill="#e2ba87"/><path d="M388.7 248.7a57 57 0 0 0-3.2 10.5 40 40 0 0 0 8.5 30.4 42.3 42.3 0 0 0 33 15.7c-3.2-31.7-29-50.7-38.3-56.6ZM203.5 332c24.4-5.2 39.6-31 33.9-57.5-5.7-26.5-30.2-43.7-54.6-38.5-24.4 5.3-39.5 31-33.8 57.6 5.7 26.5 30.1 43.7 54.5 38.5Z" fill="#DC2400" style="mix-blend-mode:multiply" opacity=".1"/><path opacity=".1" d="M323 257.9s20.9-19.9 37-1.2Z" fill="#000"/><path d="M128.7 356.9C59.3 391.7-3.7 304.4 16.5 255.3c12.9-31.4 50.4-33.8 72.1-5.2a185 185 0 0 1 29.1 59.1" fill="#e2ba87"/><path opacity=".1" d="M71.5 279c9 9 16.1 22.5 25 30-1.7-12.5-4.3-26-10.4-37.3-6.2-11.6-17.5-21-29-20.3-14.2 1-25.9 17.6-27.4 32.6 1-9 19-15 25.9-14.2 10.8 20.4 15 60.6 15 60.6 9-22.7 5.4-40.7 1-51.5Z" fill="#000"/></g><g transform="matrix(.85472 0 0 .855 19 -17)"><path d="M385.3 380.4c9.4.2 18.3-2.5 26-10.5 4-4.2 8.2-6.5 14-3 13.9 8.7 17.1 30.2 13.4 44.6a63.3 63.3 0 0 1-30.7 36.8c-38.2 22.4-67.6 17.4-106.8 3-30.8-11.2-72.5-33.9-62-72.9 13.2-48.3 69.6-25 101.4-12 13.5 5.5 29.6 13.5 44.7 14Z" fill="#fff"/><path d="m347 463.2-6-.8 22.7-86.7 5.7 1.9-22.3 85.6ZM426.9 433a68.7 68.7 0 0 1-5.1 5.3l-13-66 2.6-2.4c.8-.9 1.7-1.7 2.6-2.4l12.9 65.6ZM296.8 351.4 264.4 433a98.1 98.1 0 0 1-5-3.7l31.4-79 6 1.1Z" fill="#D1D3D4"/></g><g transform="matrix(.85472 0 0 .855 19 -17)"><path d="M340.9 308.9a48 48 0 0 0-43.1-6.7c-.2 0-.4-.2-.2-.4 21.5-24.5 37.8-6.1 43.6 6.8 0 .2-.2.4-.3.3ZM419 300.3c0 8-3.6 16.5-12.8 15.5-7.8-.8-9.7-11-9.7-16 0-8.7 4.4-17 10.8-17 6.8 0 11.7 9.5 11.7 17.5Z" fill="#2A1200"/><path d="M333.5 238.7a43.9 43.9 0 0 0-38.2 13.2c-3.2 3.4-4 9.3-.7 13 3 3.6 8.6 4.6 12 1l3.2-3c.4-.3 1.3-.8 1.6-1.2l.5-.4a37.7 37.7 0 0 1 6-3c.5 0 1.2-.4 1.7-.5a35.6 35.6 0 0 1 6.3-1.2h2l4.3.5c4.4.7 9-3.6 9.2-8.4.1-5.3-3.2-9.3-8-10ZM425.4 254.4a31.4 31.4 0 0 0-20.2-12.6c-2.1-.4-4.6.4-6.3 1.8a9.5 9.5 0 0 0-3.1 6.2c-.1 2.4.3 5 1.8 6.8a9 9 0 0 0 5.7 3.5l1.2.3c1 .4 2.1.8 3.2 1.4 1.2.8 2.3 1.7 3.3 2.7l1 1.3a8.8 8.8 0 0 0 5.8 3.5c2 .2 4.6-.4 6.2-2 1.7-1.5 3-3.6 3.2-6 .1-2.5-.4-5-1.8-7Z" fill="#71472D"/></g><g transform="matrix(.85472 0 0 .85667 18 -15)"><path d="M94.2 287.6c-.2 4.6-.1 9.2.1 13.8 38.5 6.4 56.7 47.2 61 66.8 0 0 11.4.6 14-1.5 14.3-7.4 39.5-37.5 27.1-99.1-6-28-1.9-50.4 47.8-85.2 49.6-34.9 128.5-13.3 144.6-.4 13 10.4 14.3 12 18.2 14.5-34.4-77.5-101.9-87.7-101.9-87.7-136.9-34.2-195.3 108.6-195.3 108.6-9 22-15 45.8-15.6 70.2Z" fill="#220f00"/></g><g transform="matrix(.85472 0 0 .85667 14 -12)"><path d="M258.8 292.1c3.7 15.9 11.2 30.3 24.3 35.3 29 11 71 3 77-3.5a67 67 0 0 0 7.7-20.4c17-9.6 31.8-4.4 36.7-1 1.3 7.7 2.6 14 3.7 15.8 3 5.6 24.3 12.5 39 3 14.8-9.5 15.3-67 12.5-73-3.4-7.3-55.7-3.8-57.9 10-1.5 4.2-.7 17.2.8 30-8-2.6-19.1-3.7-31.4.5 3-14.8 4.3-29.6 1.4-34.4-5.1-17.4-111.6-24.9-114-11.5-2.5 7-3.7 21.6-2 36.9-43.5-5.6-115.2-14.6-131-16.3a47 47 0 0 0-25.8 6.2c-4.7 2.7-9.1 6.5-12.1 11.9-3.1 5.4-4.5 12-3.7 19.6l12-1.4c-.7-5.3.4-9.3 2-12.3 1.8-3 4.5-5.5 7.8-7.4 6.8-4 15-5 18.6-4.6 16 1.7 91.2 11.1 134.4 16.6Z" fill="#595757" style="mix-blend-mode:multiply"/><path opacity=".2" d="M327 238.4c-10.7-1.4-22-2.2-32.2-2.3l-40.1 55.5 4.1.5c1.9 8 4.7 15.5 8.7 21.8l59.5-75.5ZM361.6 246.2a122 122 0 0 0-21.5-5.7L274.4 322c2.6 2.2 5.5 4 8.7 5.3 2.4.9 4.8 1.6 7.3 2.3l71.2-83.5ZM460.4 279.7c1-13 .7-25.2-.3-29.8l-53 65.7 1 2.7c1.5 2.6 6.8 5.4 13.5 6.8l38.8-45.4Z" fill="#fff"/></g></g></svg>